<svg xmlns="http://www.w3.org/2000/svg" width="1200" height="500" viewBox="0 0 1200 500">
  <rect width="1200" height="500" fill="#ecfeff"/>
  <rect x="90" y="90" width="340" height="260" rx="20" fill="#111827"/>
  <g transform="translate(135 135)">
    <rect width="250" height="170" fill="#e5e7eb"/>
    <g>
      <rect x="0" y="0" width="50" height="50" fill="#ef4444"/>
      <rect x="50" y="0" width="50" height="50" fill="#22c55e"/>
      <rect x="100" y="0" width="50" height="50" fill="#3b82f6"/>
      <rect x="150" y="0" width="50" height="50" fill="#ef4444"/>
      <rect x="200" y="0" width="50" height="50" fill="#22c55e"/>
      <rect x="0" y="50" width="50" height="50" fill="#22c55e"/>
      <rect x="50" y="50" width="50" height="50" fill="#3b82f6"/>
      <rect x="100" y="50" width="50" height="50" fill="#ef4444"/>
      <rect x="150" y="50" width="50" height="50" fill="#22c55e"/>
      <rect x="200" y="50" width="50" height="50" fill="#3b82f6"/>
      <rect x="0" y="100" width="50" height="50" fill="#3b82f6"/>
      <rect x="50" y="100" width="50" height="50" fill="#ef4444"/>
      <rect x="100" y="100" width="50" height="50" fill="#22c55e"/>
      <rect x="150" y="100" width="50" height="50" fill="#3b82f6"/>
      <rect x="200" y="100" width="50" height="50" fill="#ef4444"/>
    </g>
  </g>
  <rect x="520" y="100" width="540" height="300" rx="25" fill="#cffafe" stroke="#0891b2" stroke-width="4"/>
  <text x="560" y="170" font-size="38" font-family="Arial" fill="#0f172a">Pixels, RVB et capteur photo</text>
  <text x="560" y="235" font-size="28" font-family="Arial" fill="#164e63">Les photosites captent la lumière</text>
  <text x="560" y="285" font-size="28" font-family="Arial" fill="#164e63">et produisent les données d'une image.</text>
</svg>
